<svg xmlns="http://www.w3.org/2000/svg" viewBox="0 0 1200 210" width="1200" height="210" role="img" aria-label="Платёжки и бизнес">
  <defs>
    <linearGradient id="bg" x1="0" y1="0" x2="1" y2="1">
      <stop offset="0" stop-color="#161b22"/><stop offset="1" stop-color="#0d1117"/>
    </linearGradient>
    <linearGradient id="acc" x1="0" y1="0" x2="1" y2="0">
      <stop offset="0" stop-color="#f78c6b"/><stop offset="1" stop-color="#f78c6b" stop-opacity="0.15"/>
    </linearGradient>
    <pattern id="grid" width="26" height="26" patternUnits="userSpaceOnUse">
      <path d="M 26 0 H 0 V 26" fill="none" stroke="#ffffff" stroke-opacity="0.04"/>
    </pattern>
    <radialGradient id="glow" cx="0.5" cy="0.5" r="0.5">
      <stop offset="0" stop-color="#f78c6b" stop-opacity="0.35"/>
      <stop offset="1" stop-color="#f78c6b" stop-opacity="0"/>
    </radialGradient>
  </defs>
  <rect width="1200" height="210" rx="16" fill="url(#bg)"/>
  <rect width="1200" height="210" rx="16" fill="url(#grid)"/>
  <rect width="1200" height="210" rx="16" fill="none" stroke="#f78c6b" stroke-opacity="0.35"/>
  <ellipse cx="1040" cy="105" rx="260" ry="170" fill="url(#glow)"/>
  <line x1="893" y1="69" x2="955" y2="119" stroke="#f78c6b" stroke-opacity="0.28" stroke-width="1.2"/>
  <line x1="955" y1="119" x2="1010" y2="58" stroke="#f78c6b" stroke-opacity="0.28" stroke-width="1.2"/>
  <line x1="1010" y1="58" x2="1057" y2="128" stroke="#f78c6b" stroke-opacity="0.28" stroke-width="1.2"/>
  <line x1="1057" y1="128" x2="1115" y2="91" stroke="#f78c6b" stroke-opacity="0.28" stroke-width="1.2"/>
  <line x1="1115" y1="91" x2="1033" y2="19" stroke="#f78c6b" stroke-opacity="0.28" stroke-width="1.2"/>
  <line x1="1033" y1="19" x2="924" y2="171" stroke="#f78c6b" stroke-opacity="0.28" stroke-width="1.2"/>
  <line x1="924" y1="171" x2="1127" y2="160" stroke="#f78c6b" stroke-opacity="0.28" stroke-width="1.2"/>
  <circle cx="893" cy="69" r="8" fill="#f78c6b" fill-opacity="0.55"/>
  <circle cx="955" cy="119" r="5" fill="#f78c6b" fill-opacity="0.85"/>
  <circle cx="1010" cy="58" r="5" fill="#f78c6b" fill-opacity="0.85"/>
  <circle cx="1057" cy="128" r="8" fill="#f78c6b" fill-opacity="0.55"/>
  <circle cx="1115" cy="91" r="5" fill="#f78c6b" fill-opacity="0.85"/>
  <circle cx="1033" cy="19" r="5" fill="#f78c6b" fill-opacity="0.85"/>
  <circle cx="924" cy="171" r="8" fill="#f78c6b" fill-opacity="0.55"/>
  <circle cx="1127" cy="160" r="5" fill="#f78c6b" fill-opacity="0.85"/>
  <rect x="0" y="0" width="7" height="210" rx="3.5" fill="#f78c6b"/>
  <text x="1000" y="196" font-family="-apple-system,BlinkMacSystemFont,'Segoe UI',Roboto,Helvetica,Arial,sans-serif" font-size="190" font-weight="800" fill="#f78c6b" fill-opacity="0.1" text-anchor="middle">06</text>
  <text x="48" y="62" font-family="-apple-system,BlinkMacSystemFont,'Segoe UI',Roboto,Helvetica,Arial,sans-serif" font-size="15" font-weight="700" fill="#f78c6b" fill-opacity="1.0" text-anchor="start" letter-spacing="3.4">РАЗДЕЛ 06</text>
  <text x="46" y="118" font-family="-apple-system,BlinkMacSystemFont,'Segoe UI',Roboto,Helvetica,Arial,sans-serif" font-size="46" font-weight="800" fill="#e6edf3" fill-opacity="1.0" text-anchor="start">Платёжки и бизнес</text>
  <text x="48" y="156" font-family="-apple-system,BlinkMacSystemFont,'Segoe UI',Roboto,Helvetica,Arial,sans-serif" font-size="19" font-weight="400" fill="#8b949e" fill-opacity="1.0" text-anchor="start">Комиссии, вебхуки, профили провайдеров, юнит-экономика, право и скам-истории</text>
  <text x="48" y="186" font-family="ui-monospace,SFMono-Regular,'SF Mono',Menlo,Consolas,monospace" font-size="13" font-weight="400" fill="#8b949e" fill-opacity="0.55" text-anchor="start">Bedolaga Social Club · база знаний</text>
</svg>
